<svg width="860" height="240" viewBox="0 0 860 240" fill="none" xmlns="http://www.w3.org/2000/svg">
<path d="M747.35 189.973C745.959 189.601 744.923 188.892 744.242 187.848C743.6 186.782 743.441 185.646 743.764 184.441C744.095 183.204 744.805 182.285 745.894 181.682C747.014 181.088 748.27 180.977 749.661 181.349C751.021 181.714 752.022 182.429 752.664 183.496C753.336 184.571 753.507 185.726 753.176 186.962C752.853 188.168 752.131 189.068 751.011 189.662C749.931 190.234 748.71 190.338 747.35 189.973ZM785.942 199.916L778.014 197.792L770.133 174.163L764.754 194.239L756.826 192.115L765.547 159.567L773.475 161.691L781.331 185.413L786.735 165.244L794.664 167.369L785.942 199.916ZM806.637 177.385L804.873 183.969L815.49 186.814L813.85 192.934L803.233 190.089L801.32 197.229L813.328 200.447L811.626 206.798L791.69 201.456L800.411 168.909L820.347 174.251L818.645 180.603L806.637 177.385ZM848.909 181.904L847.207 188.255L838.583 185.945L831.564 212.141L823.635 210.016L830.655 183.82L822.031 181.51L823.733 175.158L848.909 181.904Z" fill="white"/>
<path d="M135.437 124.931C133.773 122.049 132.917 119.126 132.868 116.161C132.803 113.168 133.519 110.409 135.016 107.882C136.525 105.311 138.693 103.209 141.519 101.577C144.983 99.5775 148.477 98.78 151.999 99.185C155.522 99.5901 158.61 101.132 161.266 103.812L153.451 108.324C152.165 107.44 150.797 106.992 149.349 106.978C147.928 106.949 146.538 107.326 145.18 108.11C142.991 109.374 141.657 111.16 141.179 113.469C140.701 115.777 141.198 118.206 142.67 120.755C144.142 123.305 145.997 124.95 148.235 125.69C150.473 126.43 152.687 126.168 154.876 124.904C156.234 124.12 157.256 123.106 157.941 121.86C158.653 120.599 158.949 119.19 158.827 117.635L166.642 113.123C167.634 116.762 167.426 120.208 166.015 123.461C164.589 126.687 162.143 129.299 158.679 131.299C155.853 132.931 152.957 133.772 149.992 133.821C147.039 133.826 144.291 133.066 141.748 131.542C139.205 130.017 137.101 127.813 135.437 124.931ZM193.388 86.7071L195.368 92.8246L200.356 89.9446L204.052 96.3463L197.692 100.018L199.992 107.17L193.341 111.01L191.041 103.858L184.14 107.842L186.441 114.994L179.789 118.834L177.489 111.682L171.337 115.234L167.641 108.833L175.165 104.489L173.185 98.3711L167.157 101.851L163.461 95.4494L170.819 91.2014L168.597 84.2812L175.248 80.4412L177.47 87.3614L184.371 83.3774L182.149 76.4572L188.8 72.6172L191.022 79.5374L196.176 76.5614L199.872 82.9631L193.388 86.7071ZM186.737 90.5471L179.836 94.5311L181.816 100.649L188.717 96.6646L186.737 90.5471Z" fill="white"/>
<path d="M449.937 43.487C450.53 38.015 452.047 33.8179 454.488 30.8958C456.96 27.9771 460.551 26.7727 465.259 27.2826C469.968 27.7926 473.201 29.7361 474.96 33.113C476.75 36.4935 477.349 40.9197 476.757 46.3917C476.157 51.9273 474.621 56.1545 472.148 59.0732C469.707 61.9954 466.133 63.2015 461.424 62.6916C456.716 62.1816 453.466 60.2364 451.676 56.856C449.917 53.479 449.338 49.0227 449.937 43.487ZM468.739 45.5234C469.087 42.3102 469.005 39.8067 468.491 38.013C467.98 36.1874 466.628 35.1557 464.432 34.918C462.237 34.6802 460.695 35.3983 459.806 37.0723C458.92 38.7144 458.303 41.1421 457.955 44.3553C457.72 46.5187 457.653 48.33 457.752 49.7891C457.855 51.2165 458.24 52.417 458.907 53.3904C459.61 54.3356 460.724 54.8908 462.251 55.0562C463.778 55.2216 464.97 54.9162 465.827 54.1399C466.719 53.3352 467.368 52.2468 467.774 50.8745C468.183 49.4705 468.505 47.6868 468.739 45.5234ZM481.222 37.4123L482.044 29.8247L495.262 31.2564L491.489 66.0926L482.995 65.1726L485.946 37.924L481.222 37.4123ZM499.164 39.3555L499.986 31.7679L513.204 33.1996L509.431 68.0359L500.937 67.1159L503.888 39.8672L499.164 39.3555ZM516.952 50.7451C517.544 45.2731 519.061 41.076 521.502 38.1538C523.975 35.2351 527.565 34.0307 532.274 34.5407C536.982 35.0506 540.216 36.9941 541.974 40.3711C543.765 43.7516 544.364 48.1778 543.771 53.6498C543.171 59.1854 541.635 63.4126 539.163 66.3313C536.722 69.2535 533.147 70.4596 528.439 69.9496C523.73 69.4397 520.481 67.4945 518.69 64.114C516.932 60.737 516.352 56.2807 516.952 50.7451ZM535.754 52.7815C536.102 49.5683 536.019 47.0648 535.505 45.271C534.995 43.4455 533.642 42.4138 531.447 42.176C529.252 41.9383 527.709 42.6564 526.82 44.3304C525.934 45.9725 525.317 48.4002 524.969 51.6134C524.735 53.7767 524.667 55.588 524.767 57.0472C524.87 58.4746 525.255 59.675 525.922 60.6485C526.624 61.5936 527.739 62.1489 529.266 62.3143C530.793 62.4797 531.985 62.1742 532.841 61.3979C533.733 60.5933 534.382 59.5048 534.788 58.1326C535.198 56.7285 535.52 54.9448 535.754 52.7815ZM548.236 44.6704L549.058 37.0828L562.277 38.5144L558.504 73.3507L550.009 72.4307L552.961 45.1821L548.236 44.6704Z" fill="white"/>
</svg>
