<svg width="745" height="238" viewBox="0 0 745 238" fill="none" xmlns="http://www.w3.org/2000/svg">
<path d="M633.35 189.973C631.959 189.601 630.923 188.892 630.242 187.848C629.6 186.782 629.441 185.646 629.764 184.441C630.095 183.204 630.805 182.285 631.894 181.682C633.014 181.088 634.27 180.977 635.661 181.35C637.021 181.714 638.022 182.429 638.664 183.496C639.336 184.571 639.507 185.726 639.176 186.963C638.853 188.168 638.131 189.068 637.011 189.662C635.931 190.234 634.71 190.338 633.35 189.973ZM671.942 199.917L664.014 197.792L656.133 174.163L650.754 194.239L642.826 192.115L651.547 159.567L659.475 161.691L667.331 185.413L672.735 165.244L680.664 167.369L671.942 199.917ZM692.637 177.385L690.873 183.969L701.49 186.814L699.85 192.934L689.233 190.089L687.32 197.229L699.328 200.447L697.626 206.798L677.69 201.456L686.411 168.909L706.347 174.251L704.645 180.603L692.637 177.385ZM734.909 181.904L733.207 188.256L724.583 185.945L717.564 212.141L709.635 210.016L716.655 183.82L708.031 181.51L709.733 175.158L734.909 181.904Z" fill="white"/>
<path d="M21.4373 124.931C19.7733 122.049 18.9169 119.126 18.8679 116.161C18.803 113.169 19.5191 110.409 21.0161 107.882C22.5248 105.311 24.6925 103.209 27.5193 101.577C30.9834 99.5775 34.4766 98.78 37.9991 99.1851C41.5215 99.5901 44.6104 101.132 47.2658 103.812L39.4508 108.324C38.1648 107.44 36.7974 106.992 35.3486 106.978C33.9275 106.949 32.538 107.326 31.1801 108.11C28.9908 109.374 27.6572 111.16 27.1793 113.469C26.7013 115.777 27.1984 118.206 28.6704 120.755C30.1424 123.305 31.9973 124.95 34.2353 125.69C36.4732 126.43 38.6868 126.168 40.8761 124.904C42.234 124.12 43.2555 123.106 43.9406 121.86C44.6534 120.599 44.9488 119.19 44.8268 117.635L52.6418 113.123C53.6344 116.762 53.4255 120.208 52.0151 123.461C50.5886 126.687 48.1434 129.299 44.6793 131.299C41.8525 132.931 38.9568 133.772 35.9921 133.821C33.0391 133.826 30.291 133.066 27.7479 131.542C25.2049 130.017 23.1013 127.813 21.4373 124.931ZM79.3876 86.7071L81.3676 92.8246L86.356 89.9446L90.052 96.3463L83.6919 100.018L85.9921 107.17L79.341 111.01L77.0408 103.858L70.1403 107.842L72.4405 114.994L65.7894 118.834L63.4892 111.682L57.337 115.234L53.641 108.833L61.165 104.489L59.1849 98.3711L53.1574 101.851L49.4614 95.4494L56.8192 91.2014L54.5974 84.2812L61.2484 80.4412L63.4702 87.3614L70.3707 83.3774L68.1489 76.4572L74.8 72.6172L77.0218 79.5374L82.1764 76.5614L85.8724 82.9631L79.3876 86.7071ZM72.7365 90.5471L65.836 94.5311L67.8161 100.649L74.7166 96.6646L72.7365 90.5471Z" fill="white"/>
<path d="M335.937 43.487C336.53 38.015 338.047 33.8179 340.488 30.8958C342.96 27.9771 346.551 26.7727 351.259 27.2826C355.968 27.7926 359.201 29.7361 360.96 33.113C362.75 36.4935 363.349 40.9197 362.757 46.3917C362.157 51.9273 360.621 56.1545 358.148 59.0732C355.707 61.9954 352.133 63.2015 347.424 62.6916C342.716 62.1816 339.466 60.2364 337.676 56.856C335.917 53.479 335.338 49.0227 335.937 43.487ZM354.739 45.5234C355.087 42.3102 355.005 39.8067 354.491 38.013C353.98 36.1874 352.628 35.1557 350.432 34.918C348.237 34.6802 346.695 35.3983 345.806 37.0723C344.92 38.7144 344.303 41.1421 343.955 44.3553C343.72 46.5187 343.653 48.3299 343.752 49.7891C343.855 51.2165 344.24 52.417 344.907 53.3904C345.61 54.3356 346.724 54.8908 348.251 55.0562C349.778 55.2216 350.97 54.9162 351.827 54.1399C352.719 53.3352 353.368 52.2468 353.774 50.8745C354.183 49.4705 354.505 47.6868 354.739 45.5234ZM367.222 37.4123L368.044 29.8247L381.262 31.2564L377.489 66.0926L368.995 65.1726L371.946 37.924L367.222 37.4123ZM385.164 39.3555L385.986 31.7679L399.204 33.1996L395.431 68.0359L386.937 67.1159L389.888 39.8672L385.164 39.3555ZM402.952 50.7451C403.544 45.2731 405.061 41.076 407.502 38.1538C409.975 35.2351 413.565 34.0307 418.274 34.5407C422.982 35.0506 426.216 36.9941 427.974 40.3711C429.765 43.7516 430.364 48.1778 429.771 53.6498C429.171 59.1854 427.635 63.4126 425.163 66.3313C422.722 69.2535 419.147 70.4596 414.439 69.9496C409.73 69.4397 406.481 67.4945 404.69 64.114C402.932 60.737 402.352 56.2807 402.952 50.7451ZM421.754 52.7815C422.102 49.5683 422.019 47.0648 421.505 45.271C420.995 43.4455 419.642 42.4138 417.447 42.176C415.252 41.9383 413.709 42.6564 412.82 44.3304C411.934 45.9725 411.317 48.4002 410.969 51.6134C410.735 53.7767 410.667 55.588 410.767 57.0472C410.87 58.4746 411.254 59.675 411.922 60.6485C412.624 61.5936 413.739 62.1489 415.266 62.3143C416.793 62.4797 417.985 62.1742 418.841 61.3979C419.733 60.5933 420.382 59.5048 420.788 58.1326C421.198 56.7285 421.52 54.9448 421.754 52.7815ZM434.236 44.6704L435.058 37.0828L448.277 38.5144L444.504 73.3507L436.009 72.4307L438.961 45.1821L434.236 44.6704Z" fill="white"/>
</svg>
